<svg xmlns="http://www.w3.org/2000/svg" viewBox="0 0 1200 800" role="img" aria-labelledby="title desc">
  <title id="title">Approval guardrails scene</title>
  <desc id="desc">An illustration of review cards protected by approval guardrails.</desc>
  <defs>
    <linearGradient id="bg" x1="0" x2="1" y1="0" y2="1">
      <stop offset="0" stop-color="#f5f3ff"/>
      <stop offset="0.5" stop-color="#eff6ff"/>
      <stop offset="1" stop-color="#f8fafc"/>
    </linearGradient>
    <linearGradient id="shield" x1="0" x2="1" y1="0" y2="1">
      <stop offset="0" stop-color="#7c3aed"/>
      <stop offset="1" stop-color="#2563eb"/>
    </linearGradient>
    <filter id="shadow" x="-20%" y="-20%" width="140%" height="140%">
      <feDropShadow dx="0" dy="24" stdDeviation="26" flood-color="#312e81" flood-opacity="0.16"/>
    </filter>
  </defs>
  <rect width="1200" height="800" fill="url(#bg)"/>
  <circle cx="1002" cy="176" r="116" fill="#ddd6fe" opacity="0.9"/>
  <circle cx="182" cy="626" r="108" fill="#bfdbfe" opacity="0.82"/>
  <g filter="url(#shadow)">
    <rect x="230" y="154" width="514" height="456" rx="38" fill="#ffffff"/>
    <rect x="288" y="224" width="316" height="54" rx="18" fill="#eef2ff"/>
    <rect x="288" y="324" width="392" height="54" rx="18" fill="#f1f5f9"/>
    <rect x="288" y="424" width="356" height="54" rx="18" fill="#f1f5f9"/>
    <circle cx="648" cy="252" r="22" fill="#22c55e"/>
    <circle cx="648" cy="352" r="22" fill="#f59e0b"/>
    <circle cx="648" cy="452" r="22" fill="#2563eb"/>
  </g>
  <g filter="url(#shadow)">
    <path d="M850 174c64 36 124 48 180 54v156c0 104-68 174-180 232-112-58-180-128-180-232V228c56-6 116-18 180-54z" fill="url(#shield)"/>
    <path d="M774 392l54 54 108-130" fill="none" stroke="#ffffff" stroke-width="28" stroke-linecap="round" stroke-linejoin="round"/>
  </g>
  <path d="M418 666h360" stroke="#c4b5fd" stroke-width="18" stroke-linecap="round"/>
  <path d="M458 704h280" stroke="#93c5fd" stroke-width="14" stroke-linecap="round"/>
</svg>
