<svg xmlns="http://www.w3.org/2000/svg" viewBox="0 0 1200 800" role="img" aria-labelledby="title desc">
  <title id="title">Social content calendar</title>
  <desc id="desc">A polished illustration of social content planning with phone previews and a calendar.</desc>
  <defs>
    <linearGradient id="bg" x1="0" x2="1" y1="0" y2="1">
      <stop offset="0" stop-color="#fff1f2"/>
      <stop offset="0.5" stop-color="#ffe4e6"/>
      <stop offset="1" stop-color="#eef2ff"/>
    </linearGradient>
    <linearGradient id="phone" x1="0" x2="1" y1="0" y2="1">
      <stop offset="0" stop-color="#111827"/>
      <stop offset="1" stop-color="#881337"/>
    </linearGradient>
    <filter id="shadow" x="-20%" y="-20%" width="140%" height="140%">
      <feDropShadow dx="0" dy="24" stdDeviation="26" flood-color="#881337" flood-opacity="0.14"/>
    </filter>
  </defs>
  <rect width="1200" height="800" fill="url(#bg)"/>
  <circle cx="1000" cy="138" r="110" fill="#fecdd3" opacity="0.9"/>
  <circle cx="182" cy="620" r="122" fill="#c7d2fe" opacity="0.75"/>
  <g filter="url(#shadow)">
    <rect x="188" y="134" width="304" height="536" rx="56" fill="url(#phone)"/>
    <rect x="226" y="186" width="228" height="410" rx="30" fill="#fff7f9"/>
    <rect x="256" y="226" width="168" height="168" rx="26" fill="#fecdd3"/>
    <circle cx="340" cy="310" r="42" fill="#fb7185"/>
    <path d="M260 438h160M260 474h122M260 510h142" stroke="#94a3b8" stroke-width="12" stroke-linecap="round"/>
  </g>
  <g filter="url(#shadow)">
    <rect x="566" y="162" width="430" height="418" rx="38" fill="#ffffff"/>
    <g fill="#f8fafc">
      <rect x="612" y="226" width="74" height="64" rx="16"/>
      <rect x="712" y="226" width="74" height="64" rx="16"/>
      <rect x="812" y="226" width="74" height="64" rx="16"/>
      <rect x="612" y="318" width="74" height="64" rx="16"/>
      <rect x="712" y="318" width="74" height="64" rx="16"/>
      <rect x="812" y="318" width="74" height="64" rx="16"/>
      <rect x="612" y="410" width="74" height="64" rx="16"/>
      <rect x="712" y="410" width="74" height="64" rx="16"/>
      <rect x="812" y="410" width="74" height="64" rx="16"/>
    </g>
    <circle cx="649" cy="258" r="11" fill="#fb7185"/>
    <circle cx="749" cy="350" r="11" fill="#f59e0b"/>
    <circle cx="849" cy="442" r="11" fill="#6366f1"/>
    <path d="M620 194h206" stroke="#fb7185" stroke-width="14" stroke-linecap="round"/>
    <path d="M620 522h262" stroke="#cbd5e1" stroke-width="12" stroke-linecap="round"/>
  </g>
</svg>
