<svg xmlns="http://www.w3.org/2000/svg" viewBox="0 0 1200 800" role="img" aria-labelledby="title desc">
  <title id="title">Editing studio workspace</title>
  <desc id="desc">A polished illustration of a video preview, editing timeline, and export controls.</desc>
  <defs>
    <linearGradient id="bg" x1="0" x2="1" y1="0" y2="1">
      <stop offset="0" stop-color="#fdf4ff"/>
      <stop offset="0.55" stop-color="#fae8ff"/>
      <stop offset="1" stop-color="#ecfeff"/>
    </linearGradient>
    <linearGradient id="preview" x1="0" x2="1" y1="0" y2="1">
      <stop offset="0" stop-color="#18181b"/>
      <stop offset="1" stop-color="#701a75"/>
    </linearGradient>
    <filter id="shadow" x="-20%" y="-20%" width="140%" height="140%">
      <feDropShadow dx="0" dy="24" stdDeviation="26" flood-color="#701a75" flood-opacity="0.14"/>
    </filter>
  </defs>
  <rect width="1200" height="800" fill="url(#bg)"/>
  <circle cx="1020" cy="620" r="126" fill="#bae6fd" opacity="0.72"/>
  <circle cx="194" cy="152" r="92" fill="#f5d0fe" opacity="0.9"/>
  <g filter="url(#shadow)">
    <rect x="170" y="118" width="860" height="542" rx="42" fill="#ffffff"/>
    <rect x="218" y="166" width="520" height="286" rx="30" fill="url(#preview)"/>
    <path d="M392 254l126 72-126 72z" fill="#faf5ff"/>
    <rect x="780" y="176" width="192" height="48" rx="16" fill="#fdf4ff"/>
    <rect x="780" y="248" width="192" height="48" rx="16" fill="#f8fafc"/>
    <rect x="780" y="320" width="192" height="48" rx="16" fill="#f8fafc"/>
    <path d="M810 200h84M810 272h118M810 344h98" stroke="#d946ef" stroke-width="10" stroke-linecap="round"/>
    <g>
      <rect x="220" y="502" width="752" height="42" rx="18" fill="#f1f5f9"/>
      <rect x="244" y="514" width="128" height="18" rx="9" fill="#d946ef"/>
      <rect x="390" y="514" width="104" height="18" rx="9" fill="#06b6d4"/>
      <rect x="512" y="514" width="168" height="18" rx="9" fill="#f59e0b"/>
      <rect x="700" y="514" width="118" height="18" rx="9" fill="#22c55e"/>
      <rect x="836" y="514" width="86" height="18" rx="9" fill="#818cf8"/>
    </g>
    <rect x="220" y="572" width="360" height="38" rx="16" fill="#f8fafc"/>
    <path d="M254 591h252" stroke="#cbd5e1" stroke-width="10" stroke-linecap="round"/>
  </g>
</svg>
