<svg xmlns="http://www.w3.org/2000/svg" viewBox="0 0 1200 800" role="img" aria-labelledby="title desc">
  <title id="title">Video hub workspace</title>
  <desc id="desc">A polished illustration of video footage, frame indexing, and search.</desc>
  <defs>
    <linearGradient id="bg" x1="0" x2="1" y1="0" y2="1">
      <stop offset="0" stop-color="#f8fbff"/>
      <stop offset="0.52" stop-color="#e0f2fe"/>
      <stop offset="1" stop-color="#f7fee7"/>
    </linearGradient>
    <linearGradient id="screen" x1="0" x2="1" y1="0" y2="1">
      <stop offset="0" stop-color="#0f172a"/>
      <stop offset="1" stop-color="#1e3a8a"/>
    </linearGradient>
    <filter id="shadow" x="-20%" y="-20%" width="140%" height="140%">
      <feDropShadow dx="0" dy="24" stdDeviation="28" flood-color="#0f172a" flood-opacity="0.16"/>
    </filter>
  </defs>
  <rect width="1200" height="800" fill="url(#bg)"/>
  <circle cx="1010" cy="154" r="106" fill="#bae6fd" opacity="0.8"/>
  <circle cx="180" cy="640" r="122" fill="#bbf7d0" opacity="0.75"/>
  <g filter="url(#shadow)">
    <rect x="160" y="130" width="880" height="500" rx="38" fill="#ffffff"/>
    <rect x="210" y="180" width="510" height="292" rx="28" fill="url(#screen)"/>
    <path d="M426 278l116 68-116 68z" fill="#e0f2fe"/>
    <rect x="760" y="186" width="218" height="56" rx="18" fill="#eff6ff"/>
    <rect x="760" y="268" width="218" height="56" rx="18" fill="#f8fafc"/>
    <rect x="760" y="350" width="218" height="56" rx="18" fill="#f8fafc"/>
    <path d="M792 214h96M792 296h126M792 378h108" stroke="#38bdf8" stroke-width="12" stroke-linecap="round"/>
    <path d="M792 232h142M792 314h116M792 396h152" stroke="#cbd5e1" stroke-width="8" stroke-linecap="round"/>
    <g>
      <rect x="212" y="510" width="106" height="62" rx="14" fill="#dbeafe"/>
      <rect x="338" y="510" width="106" height="62" rx="14" fill="#bfdbfe"/>
      <rect x="464" y="510" width="106" height="62" rx="14" fill="#a7f3d0"/>
      <rect x="590" y="510" width="106" height="62" rx="14" fill="#fde68a"/>
      <rect x="716" y="510" width="106" height="62" rx="14" fill="#ddd6fe"/>
      <rect x="842" y="510" width="106" height="62" rx="14" fill="#fecdd3"/>
    </g>
  </g>
  <path d="M196 690h588" stroke="#93c5fd" stroke-width="18" stroke-linecap="round" opacity="0.6"/>
  <path d="M196 690h286" stroke="#0ea5e9" stroke-width="18" stroke-linecap="round"/>
</svg>
