<svg xmlns="http://www.w3.org/2000/svg" viewBox="0 0 1200 800" role="img" aria-labelledby="title desc">
  <title id="title">Live view guidance</title>
  <desc id="desc">A polished illustration of camera and screen guidance during live work.</desc>
  <defs>
    <linearGradient id="bg" x1="0" x2="1" y1="0" y2="1">
      <stop offset="0" stop-color="#ecfeff"/>
      <stop offset="0.5" stop-color="#cffafe"/>
      <stop offset="1" stop-color="#f0fdf4"/>
    </linearGradient>
    <linearGradient id="screen" x1="0" x2="1" y1="0" y2="1">
      <stop offset="0" stop-color="#082f49"/>
      <stop offset="1" stop-color="#0f766e"/>
    </linearGradient>
    <filter id="shadow" x="-20%" y="-20%" width="140%" height="140%">
      <feDropShadow dx="0" dy="24" stdDeviation="26" flood-color="#164e63" flood-opacity="0.14"/>
    </filter>
  </defs>
  <rect width="1200" height="800" fill="url(#bg)"/>
  <circle cx="1012" cy="616" r="120" fill="#bbf7d0" opacity="0.82"/>
  <circle cx="172" cy="150" r="96" fill="#a5f3fc" opacity="0.85"/>
  <g filter="url(#shadow)">
    <rect x="170" y="140" width="860" height="500" rx="42" fill="#ffffff"/>
    <rect x="230" y="198" width="502" height="310" rx="30" fill="url(#screen)"/>
    <circle cx="482" cy="352" r="92" fill="#e0f2fe" opacity="0.18"/>
    <path d="M420 352a62 62 0 11124 0 62 62 0 01-124 0z" fill="#67e8f9"/>
    <circle cx="482" cy="352" r="28" fill="#083344"/>
    <path d="M262 548h404" stroke="#94a3b8" stroke-width="14" stroke-linecap="round" opacity="0.55"/>
    <rect x="786" y="210" width="188" height="86" rx="24" fill="#f8fafc"/>
    <rect x="786" y="330" width="188" height="86" rx="24" fill="#f8fafc"/>
    <rect x="786" y="450" width="188" height="86" rx="24" fill="#f8fafc"/>
    <path d="M822 252h100M822 372h74M822 492h116" stroke="#06b6d4" stroke-width="12" stroke-linecap="round"/>
    <path d="M822 272h74M822 392h104M822 512h82" stroke="#cbd5e1" stroke-width="8" stroke-linecap="round"/>
  </g>
  <path d="M772 640c56-46 116-46 178 0" fill="none" stroke="#14b8a6" stroke-width="14" stroke-linecap="round"/>
</svg>
