<svg xmlns="http://www.w3.org/2000/svg" viewBox="0 0 1200 800" role="img" aria-labelledby="title desc">
  <title id="title">Tour video stage</title>
  <desc id="desc">A polished illustration of concert touring video screens, signal flow, and control racks.</desc>
  <defs>
    <linearGradient id="bg" x1="0" x2="1" y1="0" y2="1">
      <stop offset="0" stop-color="#f5f3ff"/>
      <stop offset="0.55" stop-color="#ede9fe"/>
      <stop offset="1" stop-color="#ecfeff"/>
    </linearGradient>
    <linearGradient id="stage" x1="0" x2="1" y1="0" y2="1">
      <stop offset="0" stop-color="#111827"/>
      <stop offset="1" stop-color="#312e81"/>
    </linearGradient>
    <filter id="shadow" x="-20%" y="-20%" width="140%" height="140%">
      <feDropShadow dx="0" dy="26" stdDeviation="28" flood-color="#312e81" flood-opacity="0.16"/>
    </filter>
  </defs>
  <rect width="1200" height="800" fill="url(#bg)"/>
  <circle cx="980" cy="160" r="112" fill="#ddd6fe"/>
  <circle cx="170" cy="620" r="120" fill="#bae6fd" opacity="0.8"/>
  <g filter="url(#shadow)">
    <rect x="152" y="126" width="896" height="520" rx="42" fill="#ffffff"/>
    <rect x="226" y="184" width="560" height="286" rx="30" fill="url(#stage)"/>
    <g opacity="0.9">
      <rect x="286" y="226" width="96" height="174" rx="12" fill="#8b5cf6"/>
      <rect x="410" y="214" width="96" height="198" rx="12" fill="#06b6d4"/>
      <rect x="534" y="238" width="96" height="150" rx="12" fill="#f59e0b"/>
      <rect x="658" y="226" width="72" height="174" rx="12" fill="#22c55e"/>
    </g>
    <path d="M270 508h548" stroke="#475569" stroke-width="18" stroke-linecap="round"/>
    <path d="M332 184L252 72M682 184L780 70" stroke="#a78bfa" stroke-width="8" stroke-linecap="round" opacity="0.75"/>
    <rect x="842" y="206" width="142" height="248" rx="24" fill="#f8fafc"/>
    <rect x="872" y="242" width="82" height="20" rx="10" fill="#8b5cf6"/>
    <rect x="872" y="292" width="82" height="20" rx="10" fill="#06b6d4"/>
    <rect x="872" y="342" width="82" height="20" rx="10" fill="#f59e0b"/>
    <rect x="872" y="392" width="82" height="20" rx="10" fill="#22c55e"/>
    <path d="M440 532c88 62 184 64 286 0" fill="none" stroke="#a78bfa" stroke-width="12" stroke-linecap="round"/>
  </g>
</svg>
