<svg xmlns="http://www.w3.org/2000/svg" viewBox="0 0 1200 800" role="img" aria-labelledby="title desc">
  <title id="title">Organized lists</title>
  <desc id="desc">A polished illustration of planning lists, check marks, and organized columns.</desc>
  <defs>
    <linearGradient id="bg" x1="0" x2="1" y1="0" y2="1">
      <stop offset="0" stop-color="#f7fee7"/>
      <stop offset="0.55" stop-color="#ecfccb"/>
      <stop offset="1" stop-color="#eff6ff"/>
    </linearGradient>
    <filter id="shadow" x="-20%" y="-20%" width="140%" height="140%">
      <feDropShadow dx="0" dy="24" stdDeviation="26" flood-color="#3f6212" flood-opacity="0.13"/>
    </filter>
  </defs>
  <rect width="1200" height="800" fill="url(#bg)"/>
  <circle cx="1012" cy="154" r="112" fill="#d9f99d" opacity="0.9"/>
  <circle cx="178" cy="626" r="122" fill="#bfdbfe" opacity="0.75"/>
  <g filter="url(#shadow)">
    <rect x="170" y="128" width="860" height="520" rx="42" fill="#ffffff"/>
    <rect x="236" y="194" width="238" height="366" rx="28" fill="#f8fafc"/>
    <rect x="512" y="194" width="238" height="366" rx="28" fill="#f8fafc"/>
    <rect x="788" y="194" width="176" height="366" rx="28" fill="#f8fafc"/>
    <path d="M278 266l20 20 42-48M278 352l20 20 42-48M278 438l20 20 42-48" fill="none" stroke="#65a30d" stroke-width="12" stroke-linecap="round" stroke-linejoin="round"/>
    <path d="M374 270h54M374 356h54M374 442h54" stroke="#94a3b8" stroke-width="12" stroke-linecap="round"/>
    <path d="M556 260h132M556 322h102M556 384h142M556 446h116" stroke="#84cc16" stroke-width="14" stroke-linecap="round"/>
    <path d="M828 260h88M828 322h68M828 384h92M828 446h74" stroke="#cbd5e1" stroke-width="12" stroke-linecap="round"/>
  </g>
  <path d="M222 694h492" stroke="#a3e635" stroke-width="16" stroke-linecap="round" opacity="0.7"/>
</svg>
