<svg xmlns="http://www.w3.org/2000/svg" viewBox="0 0 1200 800" role="img" aria-labelledby="title desc">
  <title id="title">App development lanes</title>
  <desc id="desc">A polished illustration of app screens, build lanes, and review blocks.</desc>
  <defs>
    <linearGradient id="bg" x1="0" x2="1" y1="0" y2="1">
      <stop offset="0" stop-color="#eef2ff"/>
      <stop offset="0.52" stop-color="#e0e7ff"/>
      <stop offset="1" stop-color="#f0fdf4"/>
    </linearGradient>
    <linearGradient id="code" x1="0" x2="1" y1="0" y2="1">
      <stop offset="0" stop-color="#111827"/>
      <stop offset="1" stop-color="#3730a3"/>
    </linearGradient>
    <filter id="shadow" x="-20%" y="-20%" width="140%" height="140%">
      <feDropShadow dx="0" dy="24" stdDeviation="28" flood-color="#312e81" flood-opacity="0.15"/>
    </filter>
  </defs>
  <rect width="1200" height="800" fill="url(#bg)"/>
  <circle cx="1016" cy="156" r="112" fill="#c7d2fe" opacity="0.8"/>
  <circle cx="170" cy="616" r="124" fill="#bbf7d0" opacity="0.75"/>
  <g filter="url(#shadow)">
    <rect x="160" y="128" width="880" height="520" rx="42" fill="#ffffff"/>
    <rect x="216" y="186" width="416" height="294" rx="28" fill="url(#code)"/>
    <path d="M270 254h144M270 300h248M270 346h178M270 392h226" stroke="#c7d2fe" stroke-width="12" stroke-linecap="round"/>
    <circle cx="274" cy="220" r="12" fill="#f87171"/>
    <circle cx="314" cy="220" r="12" fill="#fbbf24"/>
    <circle cx="354" cy="220" r="12" fill="#34d399"/>
    <rect x="696" y="186" width="236" height="362" rx="36" fill="#111827"/>
    <rect x="728" y="236" width="172" height="252" rx="28" fill="#f8fafc"/>
    <rect x="760" y="272" width="108" height="34" rx="14" fill="#6366f1"/>
    <rect x="760" y="336" width="108" height="34" rx="14" fill="#22c55e"/>
    <rect x="760" y="400" width="108" height="34" rx="14" fill="#f59e0b"/>
    <rect x="218" y="522" width="164" height="54" rx="18" fill="#eef2ff"/>
    <rect x="408" y="522" width="164" height="54" rx="18" fill="#f0fdf4"/>
    <rect x="598" y="522" width="164" height="54" rx="18" fill="#fff7ed"/>
  </g>
</svg>
