<svg xmlns="http://www.w3.org/2000/svg" viewBox="0 0 1200 800" role="img" aria-labelledby="title desc">
  <title id="title">Customer follow-up scene</title>
  <desc id="desc">An illustration of a customer conversation and follow-up workflow.</desc>
  <defs>
    <linearGradient id="bg" x1="0" x2="1" y1="0" y2="1">
      <stop offset="0" stop-color="#fff7ed"/>
      <stop offset="0.5" stop-color="#fef3c7"/>
      <stop offset="1" stop-color="#eff6ff"/>
    </linearGradient>
    <linearGradient id="phone" x1="0" x2="1" y1="0" y2="1">
      <stop offset="0" stop-color="#111827"/>
      <stop offset="1" stop-color="#334155"/>
    </linearGradient>
    <filter id="shadow" x="-20%" y="-20%" width="140%" height="140%">
      <feDropShadow dx="0" dy="24" stdDeviation="26" flood-color="#78350f" flood-opacity="0.14"/>
    </filter>
  </defs>
  <rect width="1200" height="800" fill="url(#bg)"/>
  <circle cx="1020" cy="144" r="96" fill="#fde68a"/>
  <circle cx="178" cy="604" r="126" fill="#bfdbfe" opacity="0.75"/>
  <g filter="url(#shadow)">
    <rect x="210" y="128" width="330" height="548" rx="52" fill="url(#phone)"/>
    <rect x="244" y="178" width="262" height="438" rx="28" fill="#f8fafc"/>
    <circle cx="375" cy="640" r="16" fill="#64748b"/>
    <circle cx="375" cy="270" r="54" fill="#dbeafe"/>
    <path d="M330 380h144M330 414h112M330 448h132" stroke="#94a3b8" stroke-width="14" stroke-linecap="round"/>
    <rect x="320" y="504" width="110" height="44" rx="22" fill="#2563eb"/>
  </g>
  <g filter="url(#shadow)">
    <rect x="602" y="178" width="382" height="316" rx="34" fill="#ffffff"/>
    <path d="M672 264h234M672 314h178M672 364h216" stroke="#cbd5e1" stroke-width="16" stroke-linecap="round"/>
    <circle cx="684" cy="436" r="28" fill="#10b981"/>
    <circle cx="762" cy="436" r="28" fill="#2563eb"/>
    <circle cx="840" cy="436" r="28" fill="#f59e0b"/>
  </g>
  <path d="M538 366c56 0 90 24 126 74" fill="none" stroke="#2563eb" stroke-width="12" stroke-linecap="round" stroke-dasharray="4 26"/>
  <path d="M648 552h294" stroke="#ffffff" stroke-width="88" stroke-linecap="round" opacity="0.78"/>
  <path d="M682 548h196" stroke="#10b981" stroke-width="16" stroke-linecap="round"/>
</svg>
