<svg xmlns="http://www.w3.org/2000/svg" viewBox="0 0 1200 800" role="img" aria-labelledby="title desc">
  <title id="title">Home command briefing scene</title>
  <desc id="desc">An illustration of a calm daily command desk with weather, news, and task cards.</desc>
  <defs>
    <linearGradient id="bg" x1="0" x2="1" y1="0" y2="1">
      <stop offset="0" stop-color="#f8fafc"/>
      <stop offset="0.48" stop-color="#eef2ff"/>
      <stop offset="1" stop-color="#ecfeff"/>
    </linearGradient>
    <linearGradient id="window" x1="0" x2="1" y1="0" y2="1">
      <stop offset="0" stop-color="#93c5fd"/>
      <stop offset="1" stop-color="#fef3c7"/>
    </linearGradient>
    <filter id="shadow" x="-20%" y="-20%" width="140%" height="140%">
      <feDropShadow dx="0" dy="24" stdDeviation="26" flood-color="#1e293b" flood-opacity="0.14"/>
    </filter>
  </defs>
  <rect width="1200" height="800" fill="url(#bg)"/>
  <rect x="136" y="92" width="930" height="550" rx="42" fill="#ffffff" opacity="0.78"/>
  <rect x="204" y="140" width="318" height="254" rx="34" fill="url(#window)"/>
  <circle cx="306" cy="216" r="46" fill="#fde68a"/>
  <path d="M224 352c60-84 116-78 168-112 44-28 82-18 110 22v132H224z" fill="#bfdbfe" opacity="0.78"/>
  <g filter="url(#shadow)">
    <rect x="578" y="150" width="352" height="112" rx="26" fill="#ffffff"/>
    <rect x="612" y="188" width="152" height="14" rx="7" fill="#2563eb"/>
    <rect x="612" y="220" width="238" height="10" rx="5" fill="#cbd5e1"/>
    <rect x="578" y="304" width="352" height="112" rx="26" fill="#ffffff"/>
    <rect x="612" y="342" width="182" height="14" rx="7" fill="#10b981"/>
    <rect x="612" y="374" width="210" height="10" rx="5" fill="#cbd5e1"/>
    <rect x="578" y="458" width="352" height="112" rx="26" fill="#ffffff"/>
    <rect x="612" y="496" width="132" height="14" rx="7" fill="#f59e0b"/>
    <rect x="612" y="528" width="230" height="10" rx="5" fill="#cbd5e1"/>
  </g>
  <rect x="188" y="642" width="804" height="72" rx="30" fill="#dbeafe"/>
  <path d="M250 678h506" stroke="#64748b" stroke-width="14" stroke-linecap="round" opacity="0.34"/>
  <circle cx="838" cy="678" r="24" fill="#2563eb"/>
  <circle cx="900" cy="678" r="24" fill="#10b981"/>
</svg>
