<svg xmlns="http://www.w3.org/2000/svg" viewBox="0 0 1200 800" role="img" aria-labelledby="title desc">
  <title id="title">Revenue workflow scene</title>
  <desc id="desc">An editorial illustration of customer revenue work moving through a calm business dashboard.</desc>
  <defs>
    <linearGradient id="bg" x1="0" x2="1" y1="0" y2="1">
      <stop offset="0" stop-color="#f8fbff"/>
      <stop offset="0.52" stop-color="#e9f4ff"/>
      <stop offset="1" stop-color="#f7f7fb"/>
    </linearGradient>
    <linearGradient id="desk" x1="0" x2="1" y1="0" y2="0">
      <stop offset="0" stop-color="#cfe5ff"/>
      <stop offset="1" stop-color="#d7f6e4"/>
    </linearGradient>
    <linearGradient id="screen" x1="0" x2="1" y1="0" y2="1">
      <stop offset="0" stop-color="#1f2937"/>
      <stop offset="1" stop-color="#0f172a"/>
    </linearGradient>
    <filter id="shadow" x="-20%" y="-20%" width="140%" height="140%">
      <feDropShadow dx="0" dy="22" stdDeviation="24" flood-color="#0f172a" flood-opacity="0.18"/>
    </filter>
  </defs>
  <rect width="1200" height="800" fill="url(#bg)"/>
  <circle cx="1000" cy="145" r="112" fill="#dbeafe" opacity="0.85"/>
  <circle cx="178" cy="164" r="82" fill="#dcfce7" opacity="0.85"/>
  <path d="M118 624c148-82 292-118 430-108 174 12 286 92 460 68 44-6 86-19 128-38v254H118z" fill="#ffffff" opacity="0.62"/>
  <g filter="url(#shadow)">
    <rect x="200" y="140" width="800" height="472" rx="34" fill="#ffffff"/>
    <rect x="238" y="178" width="724" height="392" rx="24" fill="#f8fafc"/>
    <rect x="286" y="226" width="286" height="198" rx="20" fill="url(#screen)"/>
    <path d="M322 356c54-62 96-45 126-82 20-24 58-16 86 12" fill="none" stroke="#38bdf8" stroke-width="12" stroke-linecap="round"/>
    <path d="M322 382c45-34 79-29 120-43 36-13 68 5 92 30" fill="none" stroke="#34d399" stroke-width="10" stroke-linecap="round"/>
    <circle cx="330" cy="268" r="16" fill="#60a5fa"/>
    <circle cx="382" cy="268" r="16" fill="#34d399"/>
    <circle cx="434" cy="268" r="16" fill="#f59e0b"/>
    <g fill="#ffffff">
      <rect x="630" y="226" width="250" height="62" rx="18"/>
      <rect x="630" y="316" width="250" height="62" rx="18"/>
      <rect x="630" y="406" width="250" height="62" rx="18"/>
    </g>
    <g fill="#2563eb">
      <rect x="660" y="248" width="108" height="10" rx="5"/>
      <rect x="660" y="338" width="142" height="10" rx="5"/>
      <rect x="660" y="428" width="124" height="10" rx="5"/>
    </g>
    <g fill="#cbd5e1">
      <rect x="660" y="267" width="164" height="8" rx="4"/>
      <rect x="660" y="357" width="136" height="8" rx="4"/>
      <rect x="660" y="447" width="154" height="8" rx="4"/>
    </g>
  </g>
  <rect x="152" y="606" width="896" height="72" rx="28" fill="url(#desk)"/>
  <circle cx="275" cy="638" r="22" fill="#2563eb"/>
  <circle cx="348" cy="638" r="22" fill="#10b981"/>
  <circle cx="421" cy="638" r="22" fill="#f59e0b"/>
  <path d="M486 638h390" stroke="#94a3b8" stroke-width="12" stroke-linecap="round"/>
</svg>
