<svg xmlns="http://www.w3.org/2000/svg" viewBox="0 0 1200 800" role="img" aria-labelledby="title desc">
  <title id="title">Trading briefing dashboard</title>
  <desc id="desc">An illustration of charts and briefing cards for a trading plan.</desc>
  <defs>
    <linearGradient id="bg" x1="0" x2="1" y1="0" y2="1">
      <stop offset="0" stop-color="#ecfeff"/>
      <stop offset="0.5" stop-color="#f0fdf4"/>
      <stop offset="1" stop-color="#f8fafc"/>
    </linearGradient>
    <linearGradient id="panel" x1="0" x2="1" y1="0" y2="1">
      <stop offset="0" stop-color="#0f172a"/>
      <stop offset="1" stop-color="#172554"/>
    </linearGradient>
    <filter id="shadow" x="-20%" y="-20%" width="140%" height="140%">
      <feDropShadow dx="0" dy="24" stdDeviation="26" flood-color="#0f172a" flood-opacity="0.18"/>
    </filter>
  </defs>
  <rect width="1200" height="800" fill="url(#bg)"/>
  <circle cx="210" cy="160" r="104" fill="#a7f3d0" opacity="0.8"/>
  <circle cx="990" cy="610" r="136" fill="#bae6fd" opacity="0.8"/>
  <g filter="url(#shadow)">
    <rect x="184" y="134" width="832" height="532" rx="38" fill="url(#panel)"/>
    <rect x="236" y="202" width="382" height="310" rx="24" fill="#111827"/>
    <path d="M272 440c58-98 124-84 168-128 38-38 82-18 132-78" fill="none" stroke="#34d399" stroke-width="13" stroke-linecap="round"/>
    <path d="M272 390c62-52 114-40 160-70 42-27 76-18 132-48" fill="none" stroke="#38bdf8" stroke-width="8" stroke-linecap="round" opacity="0.7"/>
    <g stroke="#334155" stroke-width="2">
      <path d="M272 250h300M272 314h300M272 378h300M272 442h300"/>
      <path d="M324 230v248M404 230v248M484 230v248M564 230v248"/>
    </g>
    <g fill="#ffffff">
      <rect x="668" y="202" width="262" height="70" rx="18" opacity="0.94"/>
      <rect x="668" y="302" width="262" height="70" rx="18" opacity="0.94"/>
      <rect x="668" y="402" width="262" height="70" rx="18" opacity="0.94"/>
    </g>
    <g fill="#22c55e">
      <rect x="700" y="230" width="104" height="10" rx="5"/>
      <rect x="700" y="330" width="132" height="10" rx="5"/>
      <rect x="700" y="430" width="92" height="10" rx="5"/>
    </g>
    <g fill="#94a3b8">
      <rect x="700" y="250" width="176" height="8" rx="4"/>
      <rect x="700" y="350" width="156" height="8" rx="4"/>
      <rect x="700" y="450" width="184" height="8" rx="4"/>
    </g>
    <rect x="236" y="548" width="694" height="52" rx="18" fill="#1e293b"/>
    <rect x="270" y="568" width="510" height="12" rx="6" fill="#38bdf8"/>
  </g>
</svg>
